<?xml version="1.0" standalone="no"?>
<!DOCTYPE svg PUBLIC "-//W3C//DTD SVG 20010904//EN"
 "http://www.w3.org/TR/2001/REC-SVG-20010904/DTD/svg10.dtd">
<svg version="1.0" xmlns="http://www.w3.org/2000/svg"
 width="424.000000pt" height="554.000000pt" viewBox="0 0 424.000000 554.000000"
 preserveAspectRatio="xMidYMid meet">

<g transform="translate(0.000000,554.000000) scale(0.100000,-0.100000)"
fill="#000000" stroke="none">
<path d="M1095 5513 c-45 -22 -90 -75 -445 -522 l-395 -498 -109 -58 c-64 -35
-111 -67 -116 -80 -4 -11 -11 -693 -15 -1515 l-8 -1495 744 -353 744 -352 523
92 c287 50 524 89 527 86 3 -2 -4 -168 -14 -368 -22 -412 -24 -397 56 -431
l44 -19 38 24 c20 13 254 246 519 518 l482 494 127 22 c71 12 190 34 266 48
161 31 152 21 167 173 12 110 -2 3206 -14 3232 -4 9 -24 24 -44 33 -57 24
-2640 499 -2682 492 -19 -3 -124 -50 -232 -106 -109 -55 -198 -98 -198 -95 0
3 15 54 34 113 72 222 136 462 136 506 0 43 -2 47 -40 66 -21 11 -41 20 -42
19 -2 0 -25 -12 -53 -26z"/>
</g>
</svg>
