<?xml version="1.0" standalone="no"?>
<!DOCTYPE svg PUBLIC "-//W3C//DTD SVG 20010904//EN"
 "http://www.w3.org/TR/2001/REC-SVG-20010904/DTD/svg10.dtd">
<svg version="1.0" xmlns="http://www.w3.org/2000/svg"
 width="424.000000pt" height="554.000000pt" viewBox="0 0 424.000000 554.000000"
 preserveAspectRatio="xMidYMid meet">

<g transform="translate(0.000000,554.000000) scale(0.100000,-0.100000)"
fill="#000000" stroke="none">
<path d="M1434 4851 c-28 -17 -171 -175 -409 -450 -65 -75 -93 -99 -146 -126
-37 -19 -69 -41 -73 -50 -3 -9 -6 -320 -6 -691 0 -443 -3 -674 -10 -674 -6 0
-10 -46 -10 -119 l0 -119 93 -40 c219 -96 725 -315 763 -329 39 -15 53 -14
348 32 168 26 309 46 312 43 2 -3 -1 -91 -7 -197 -10 -176 -10 -193 5 -210 23
-25 48 -31 74 -17 12 6 135 117 273 246 139 129 269 249 288 266 32 28 51 34
185 57 95 16 154 31 165 42 15 14 16 97 13 893 -1 482 -5 887 -7 898 -7 31 45
21 -995 194 -168 28 -370 62 -449 76 -80 14 -158 23 -174 20 -17 -4 -65 -23
-106 -42 -110 -53 -141 -65 -141 -57 0 5 23 75 50 157 28 82 50 157 50 167 0
15 -34 49 -50 49 -3 0 -19 -9 -36 -19z m-158 -387 c-19 -56 -21 -105 -4 -122
22 -22 64 -12 201 48 76 33 139 60 142 60 3 0 5 -463 5 -1030 0 -818 -3 -1030
-12 -1029 -7 0 -170 64 -363 142 l-350 142 0 744 0 745 55 21 c49 20 71 40
195 178 77 86 141 154 143 152 3 -2 -3 -25 -12 -51z m704 -23 c102 -17 298
-49 435 -71 667 -108 761 -124 773 -133 9 -7 12 -184 12 -823 0 -765 -1 -813
-17 -818 -10 -3 -74 -14 -143 -26 -68 -12 -131 -26 -140 -33 -8 -6 -64 -57
-125 -113 -225 -207 -356 -324 -363 -324 -4 0 -5 70 -4 156 3 137 2 158 -14
175 -9 10 -29 19 -43 19 -14 0 -154 -20 -311 -44 -157 -24 -288 -42 -292 -39
-10 5 -11 2097 -2 2106 4 4 16 5 28 2 12 -2 104 -18 206 -34z"/>
</g>
</svg>
